<svg xmlns="http://www.w3.org/2000/svg" viewBox="0 0 640 640" role="img" aria-label="Robot 18000">
  <defs>
    <linearGradient id="bg18000" x1="0" y1="0" x2="1" y2="1">
      <stop offset="0%" stop-color="#111827" />
      <stop offset="100%" stop-color="#7c3aed" />
    </linearGradient>
  </defs>
  <rect width="640" height="640" fill="url(#bg18000)" />
  <path d="M320 90c98 0 180 82 180 180v170c0 60-48 108-108 108H248c-60 0-108-48-108-108V270c0-98 82-180 180-180z" fill="#e5e7eb" />
  <rect x="200" y="220" width="240" height="120" rx="28" fill="#111827" />
  <circle cx="270" cy="280" r="22" fill="#a78bfa" />
  <circle cx="370" cy="280" r="22" fill="#c084fc" />
  <rect x="250" y="390" width="140" height="24" rx="12" fill="#9ca3af" />
  <rect x="102" y="290" width="56" height="180" rx="18" fill="#9ca3af" />
  <rect x="482" y="290" width="56" height="180" rx="18" fill="#9ca3af" />
</svg>